<svg width="28" height="28" viewBox="0 0 28 28" fill="none" xmlns="http://www.w3.org/2000/svg">
<path fill-rule="evenodd" clip-rule="evenodd" d="M13.9011 27.2418C6.50897 27.2418 0.516479 21.2493 0.516479 13.8571C0.51648 6.46503 6.50898 0.472534 13.9011 0.472534C21.2932 0.472534 27.2857 6.46503 27.2857 13.8572C27.2755 21.2455 21.2887 27.232 13.9007 27.2418L13.9011 27.2418ZM25.1891 15.689C22.8781 15.017 20.4496 14.8504 18.0685 15.2004C19.0403 17.8491 19.7837 20.5762 20.2903 23.3517C22.9108 21.5825 24.6844 18.8097 25.192 15.689L25.1891 15.689ZM18.3687 24.3976C17.8304 21.438 17.0125 18.5362 15.926 15.7311L15.8524 15.753C9.3943 18.0007 7.08546 22.4731 6.88469 22.8918C10.1509 25.4415 14.5432 26.0187 18.3572 24.3995L18.3687 24.3976ZM5.4076 21.5199C7.56169 18.0248 10.8383 15.3643 14.7013 13.9738C14.8514 13.9241 15.0025 13.8782 15.1526 13.84C14.8657 13.188 14.5502 12.5388 14.2242 11.8992C10.4039 12.9922 6.4481 13.5394 2.47447 13.5245L2.47446 13.8725C2.4717 16.6974 3.51858 19.4232 5.412 21.5204L5.4076 21.5199ZM2.70774 11.532C6.27591 11.5142 9.82757 11.0465 13.2787 10.14C11.9855 7.86286 10.5707 5.65691 9.04048 3.53173C5.79489 5.05985 3.45202 8.01949 2.70966 11.5292L2.70774 11.532ZM11.2242 2.76138C12.7889 4.89728 14.2129 7.13278 15.4872 9.4537C17.8399 8.68116 19.9206 7.2477 21.4806 5.32453C18.6887 2.84041 14.8571 1.88143 11.2242 2.75755L11.2242 2.76138ZM22.7512 6.64576C21.0494 8.67554 18.8494 10.2282 16.3667 11.1516C16.6344 11.6985 16.8907 12.2501 17.1249 12.8094C17.2138 13.0101 17.2922 13.2109 17.3706 13.4002C20.0287 13.1247 22.7131 13.2488 25.3344 13.7683C25.3178 11.171 24.4081 8.65844 22.758 6.65253L22.7512 6.64576Z" fill="#B0B7C3"/>
</svg>
