<svg width="28" height="22" viewBox="0 0 28 22" fill="none" xmlns="http://www.w3.org/2000/svg">
<path fill-rule="evenodd" clip-rule="evenodd" d="M27.6846 2.61232C26.681 3.05257 25.6179 3.3425 24.5297 3.47276C25.6744 2.78492 26.5316 1.70603 26.9427 0.435404C25.861 1.06502 24.6825 1.51116 23.4551 1.7557C21.9156 0.1153 19.5306 -0.418885 17.4384 0.40811C15.3462 1.2351 13.9711 3.25563 13.9692 5.5053C13.9692 5.92779 14.0167 6.34823 14.1109 6.75937C9.698 6.54818 5.58352 4.46899 2.79594 1.04154C2.30392 1.87773 2.04724 2.83144 2.05309 3.80163C2.05141 5.63749 2.96746 7.35242 4.49408 8.37167C3.62248 8.3439 2.77015 8.10817 2.00816 7.68413L2.00816 7.75201C2.00659 10.365 3.84609 12.6168 6.40639 13.1365C5.6014 13.3537 4.75777 13.3864 3.93841 13.2321C4.66144 15.4679 6.72384 16.9985 9.07332 17.0428C7.13199 18.5664 4.735 19.3933 2.26724 19.3909C1.83277 19.39 1.39869 19.3648 0.967041 19.3154C3.48332 20.9248 6.40854 21.7786 9.39551 21.7753C19.4942 21.7753 25.0096 13.4147 25.0096 6.17549C25.0096 5.94222 25.0096 5.70703 24.9934 5.4728C26.0701 4.69839 26.9992 3.73698 27.7362 2.63431L27.6846 2.61232Z" fill="#B0B7C3"/>
</svg>
