<svg width="28" height="20" viewBox="0 0 28 20" fill="none" xmlns="http://www.w3.org/2000/svg">
<path fill-rule="evenodd" clip-rule="evenodd" d="M26.9157 3.25856C26.7608 2.69782 26.4645 2.18625 26.0552 1.77286C25.6484 1.36121 25.1418 1.06211 24.5848 0.904775C22.4987 0.339753 14.1037 0.339753 14.1037 0.339753C14.1037 0.339753 5.73259 0.325413 3.62547 0.905731C3.06851 1.06306 2.56189 1.36217 2.15507 1.77382C1.74578 2.1872 1.4495 2.69877 1.29464 3.25951C0.899177 5.41794 0.70427 7.60833 0.712403 9.80267C0.706462 11.9879 0.901971 14.1696 1.29645 16.3195C1.45126 16.8804 1.74758 17.3922 2.15699 17.8057C2.5638 18.2174 3.07043 18.5165 3.62738 18.6738C5.7106 19.2398 14.1085 19.2398 14.1085 19.2398C14.1085 19.2398 22.4806 19.2398 24.5896 18.6738C25.1466 18.5165 25.6532 18.2174 26.06 17.8057C26.4693 17.3923 26.7656 16.8808 26.9204 16.32C27.306 14.169 27.4926 11.987 27.4778 9.80171C27.4926 7.60827 27.3044 5.41788 26.9157 3.25882L26.9157 3.25856ZM11.4268 13.8487V5.74142L18.4135 9.80174L11.4268 13.8487Z" fill="#B0B7C3"/>
</svg>
